<svg width="51" height="51" viewBox="0 0 51 51" fill="none" xmlns="http://www.w3.org/2000/svg">
<path d="M9.69178 0.674524C10.01 0.827523 10.2785 1.06728 10.4664 1.36619C10.6543 1.6651 10.754 2.011 10.754 2.36408C10.754 4.43852 11.5338 5.6332 12.511 7.08782L12.5835 7.19279C13.4133 8.42746 14.503 10.0445 14.503 12.3614C14.503 14.7258 13.3108 16.8102 11.4938 18.0474C11.9712 18.4473 12.3936 18.9397 12.7585 19.5295C13.9481 21.454 14.503 24.3957 14.503 28.6196C14.503 32.8984 13.9282 38.0371 12.9909 42.141C12.526 44.1805 11.9487 46.0625 11.2614 47.4746C10.9369 48.1772 10.507 48.8262 9.9867 49.3991C9.47184 49.9264 8.67955 50.4888 7.62983 50.4888C6.58011 50.4888 5.78782 49.9264 5.27545 49.3991C4.75362 48.8273 4.32362 48.1781 4.00079 47.4746C3.31098 46.06 2.73363 44.1805 2.26875 42.1385C1.29388 37.6965 0.78708 33.1647 0.756655 28.6171C0.756655 24.3932 1.31151 21.454 2.50119 19.5295C2.84059 18.9709 3.2676 18.4705 3.76585 18.0474C2.83804 17.4175 2.07865 16.5699 1.55407 15.5787C1.0295 14.5875 0.755716 13.4829 0.756655 12.3614C0.756655 11.4417 0.756655 9.85958 1.7139 7.81762C2.65115 5.81816 4.43318 3.52127 7.70731 0.899465C7.98325 0.678734 8.31597 0.540497 8.66709 0.500698C9.01821 0.460898 9.37343 0.521157 9.69178 0.674524ZM4.50566 12.3589C4.50566 13.1875 4.83481 13.9846 5.42071 14.5705C6.0066 15.1564 6.80125 15.4856 7.62983 15.4856C8.45841 15.4856 9.25305 15.1564 9.83895 14.5705C10.4248 13.9846 10.754 13.19 10.754 12.3614C10.754 11.2642 10.2916 10.5044 9.39936 9.17726L9.36936 9.13227C8.79702 8.2825 8.1197 7.27527 7.63982 5.98311C6.28269 7.36275 5.53288 8.50744 5.1105 9.4072C4.50566 10.6969 4.50566 11.6166 4.50566 12.3589ZM5.69034 21.499C5.07051 22.5037 4.50566 24.5632 4.50566 28.6196C4.50566 32.621 5.05051 37.4797 5.92278 41.3062C6.36266 43.2307 6.86253 44.7928 7.3699 45.8325C7.46237 46.025 7.54985 46.1849 7.62983 46.3199C7.70981 46.1849 7.79728 46.025 7.88976 45.8325C8.39712 44.7928 8.89699 43.2282 9.33687 41.3062C10.2116 37.4822 10.754 32.6235 10.754 28.6196C10.754 24.5632 10.1891 22.5037 9.56931 21.499C9.38238 21.1607 9.09983 20.8851 8.75703 20.7067C8.40208 20.5521 8.01662 20.4803 7.62983 20.4967C7.12996 20.4967 6.77255 20.5742 6.50263 20.7067C6.15983 20.8851 5.87728 21.1607 5.69034 21.499ZM20.7513 32.776C19.4272 32.5539 18.1392 32.1537 16.9224 31.5863C16.9955 30.1688 17.0163 28.749 16.9848 27.3299C18.112 28.0872 19.3842 28.6446 20.7513 28.9545V21.7339C20.7513 20.7396 21.1463 19.786 21.8494 19.083C22.5525 18.3799 23.506 17.9849 24.5003 17.9849H34.4977C34.4976 15.8872 33.9108 13.8313 32.8037 12.0496C31.6965 10.2678 30.1132 8.83122 28.2325 7.90205C26.3518 6.97288 24.2487 6.58819 22.1609 6.79145C20.073 6.99471 18.0836 7.77782 16.4175 9.0523C15.9176 7.67016 15.2053 6.61295 14.7104 5.87814L14.6105 5.72818C16.856 4.14522 19.4933 3.20957 22.2344 3.02337C24.9755 2.83717 27.715 3.40759 30.154 4.67234C32.593 5.93709 34.6376 7.84758 36.0648 10.1952C37.4919 12.5429 38.2467 15.2375 38.2467 17.9849H46.9944C47.9887 17.9849 48.9422 18.3799 49.6453 19.083C50.3484 19.786 50.7434 20.7396 50.7434 21.7339V44.2279C50.7434 45.2222 50.3484 46.1758 49.6453 46.8789C48.9422 47.582 47.9887 47.9769 46.9944 47.9769H24.5003C23.506 47.9769 22.5525 47.582 21.8494 46.8789C21.1463 46.1758 20.7513 45.2222 20.7513 44.2279V32.7735V32.776ZM24.5003 32.9334V44.2304H46.9944V21.7364H37.7718C36.9931 24.7482 35.2977 27.4435 32.9201 29.4495C30.5425 31.4554 27.6002 32.6729 24.5003 32.9334ZM33.8578 21.7364H24.5003V29.1669C26.6003 28.9315 28.5915 28.1098 30.2464 26.7957C31.9012 25.4817 33.1527 23.7284 33.8578 21.7364Z" fill="#3ACDD7"/>
<path d="M5.69034 21.499C5.07051 22.5037 4.50566 24.5632 4.50566 28.6196C4.50566 32.621 5.05051 37.4797 5.92278 41.3062C6.36266 43.2307 6.86253 44.7928 7.3699 45.8325C7.46237 46.025 7.54985 46.1849 7.62983 46.3199C7.70981 46.1849 7.79728 46.025 7.88976 45.8325C8.39712 44.7928 8.89699 43.2282 9.33687 41.3062C10.2116 37.4822 10.754 32.6235 10.754 28.6196C10.754 24.5632 10.1891 22.5037 9.56931 21.499C9.38238 21.1607 9.09983 20.8851 8.75703 20.7067C8.40208 20.5521 8.01662 20.4803 7.62983 20.4967C7.12996 20.4967 6.77255 20.5742 6.50263 20.7067C6.15983 20.8851 5.87728 21.1607 5.69034 21.499Z" fill="#3ACDD7"/>
<path d="M24.5003 32.9334V44.2304H46.9944V21.7364H37.7718C36.9931 24.7482 35.2977 27.4435 32.9201 29.4495C30.5425 31.4554 27.6002 32.6729 24.5003 32.9334Z" fill="#3ACDD7"/>
<path d="M33.8578 21.7364H24.5003V29.1669C26.6003 28.9315 28.5915 28.1098 30.2464 26.7957C31.9012 25.4817 33.1527 23.7284 33.8578 21.7364Z" fill="#3ACDD7"/>
</svg>
