<svg width="63" height="51" viewBox="0 0 63 51" fill="none" xmlns="http://www.w3.org/2000/svg">
<path d="M2.19075 2.68012L2.19135 2.67952C3.32123 1.54772 4.66506 0.98877 6.25 0.98877H24.7929L30.8964 7.09232L31.0429 7.23877H31.25H56.25C57.835 7.23877 59.18 7.79775 60.3121 8.92982C61.4419 10.0596 62 11.4036 62 12.9888V44.2388C62 45.8239 61.4419 47.1689 60.3121 48.3008C59.1801 49.4307 57.8351 49.9888 56.25 49.9888H6.25C4.66479 49.9888 3.32086 49.4306 2.19105 48.3008C1.05898 47.1688 0.5 45.8237 0.5 44.2388V6.73877C0.5 5.15383 1.05896 3.81 2.19075 2.68012Z" fill="#3ACDD7" stroke="white"/>
</svg>
