<svg width="51" height="51" viewBox="0 0 51 51" fill="none" xmlns="http://www.w3.org/2000/svg">
<path d="M11.0473 5.59603L11.1151 5.73877H11.2731H48.1481C49.0142 5.73877 49.6629 6.11531 50.1198 6.89497C50.576 7.675 50.5948 8.44766 50.178 9.24516L41.3045 25.2425L41.304 25.2433C40.8659 26.04 40.2814 26.6521 39.5504 27.0863L39.5502 27.0864C38.8198 27.5212 38.0208 27.7388 37.1481 27.7388H18.5231H18.3753L18.304 27.8683L15.554 32.8683L15.3503 33.2388H15.7731H45.5231V37.7388H15.7731C13.9889 37.7388 12.6536 36.9643 11.7392 35.393L11.7391 35.3929C10.8231 33.8206 10.7861 32.2785 11.6176 30.7334C11.6178 30.733 11.618 30.7327 11.6182 30.7323L14.9921 24.6094L15.0538 24.4974L14.999 24.3817L5.99904 5.38175L5.93131 5.23877H5.7731H1.0231V0.73877H8.74008L11.0473 5.59603ZM15.7731 50.2388C14.4649 50.2388 13.3517 49.7763 12.4199 48.8445C11.4863 47.911 11.0231 46.7969 11.0231 45.4888C11.0231 44.1807 11.4863 43.0666 12.4199 42.133C13.3517 41.2013 14.4649 40.7388 15.7731 40.7388C17.0813 40.7388 18.1945 41.2013 19.1263 42.133C20.0599 43.0666 20.5231 44.1807 20.5231 45.4888C20.5231 46.7969 20.0599 47.911 19.1263 48.8445C18.1945 49.7763 17.0813 50.2388 15.7731 50.2388ZM40.7731 50.2388C39.4649 50.2388 38.3517 49.7763 37.4199 48.8445C36.4863 47.911 36.0231 46.7969 36.0231 45.4888C36.0231 44.1807 36.4863 43.0666 37.4199 42.133C38.3517 41.2013 39.4649 40.7388 40.7731 40.7388C42.0813 40.7388 43.1954 41.2012 44.1288 42.133C45.0606 43.0665 45.5231 44.1806 45.5231 45.4888C45.5231 46.7969 45.0606 47.911 44.1288 48.8445C43.1954 49.7763 42.0813 50.2388 40.7731 50.2388Z" fill="#3ACDD7" stroke="white" stroke-width="0.5"/>
</svg>
