<svg width="63" height="51" viewBox="0 0 63 51" fill="none" xmlns="http://www.w3.org/2000/svg">
<path d="M0 19.2388C0 17.52 0.6125 16.0481 1.8375 14.8231C3.06042 13.6002 4.53125 12.9888 6.25 12.9888H15.625V6.73877C15.625 5.02002 16.2375 3.54919 17.4625 2.32627C18.6854 1.10127 20.1562 0.48877 21.875 0.48877H40.625C42.3438 0.48877 43.8156 1.10127 45.0406 2.32627C46.2635 3.54919 46.875 5.02002 46.875 6.73877V12.9888H56.25C57.9688 12.9888 59.4406 13.6002 60.6656 14.8231C61.8885 16.0481 62.5 17.52 62.5 19.2388V31.7388H50V28.6138C50 27.7284 49.7 26.9856 49.1 26.3856C48.5021 25.7877 47.7604 25.4888 46.875 25.4888C45.9896 25.4888 45.2479 25.7877 44.65 26.3856C44.05 26.9856 43.75 27.7284 43.75 28.6138V31.7388H18.75V28.6138C18.75 27.7284 18.451 26.9856 17.8531 26.3856C17.2531 25.7877 16.5104 25.4888 15.625 25.4888C14.7396 25.4888 13.9969 25.7877 13.3969 26.3856C12.799 26.9856 12.5 27.7284 12.5 28.6138V31.7388H0V19.2388ZM21.875 12.9888H40.625V6.73877H21.875V12.9888ZM6.25 50.4888C4.53125 50.4888 3.06042 49.8773 1.8375 48.6544C0.6125 47.4294 0 45.9575 0 44.2388V34.8638H12.5C12.5 35.7492 12.799 36.4909 13.3969 37.0888C13.9969 37.6888 14.7396 37.9888 15.625 37.9888C16.5104 37.9888 17.2531 37.6888 17.8531 37.0888C18.451 36.4909 18.75 35.7492 18.75 34.8638H43.75C43.75 35.7492 44.05 36.4909 44.65 37.0888C45.2479 37.6888 45.9896 37.9888 46.875 37.9888C47.7604 37.9888 48.5021 37.6888 49.1 37.0888C49.7 36.4909 50 35.7492 50 34.8638H62.5V44.2388C62.5 45.9575 61.8885 47.4294 60.6656 48.6544C59.4406 49.8773 57.9688 50.4888 56.25 50.4888H6.25Z" fill="#3ACDD7"/>
</svg>
